<mxfile host="www.draw.io" modified="2020-01-09T08:24:00.245Z" agent="Mozilla/5.0 (Windows NT 6.1; Win64; x64; rv:71.0) Gecko/20100101 Firefox/71.0" etag="xG6edmCY0dwiXyjgTlda" version="12.4.9" type="github">
  <diagram id="K1q3lrqgbs6fNITEMRqo" name="第 1 页">
    <mxGraphModel dx="1185" dy="674" grid="1" gridSize="10" guides="1" tooltips="1" connect="1" arrows="1" fold="1" page="1" pageScale="1" pageWidth="827" pageHeight="1169" math="0" shadow="0">
      <root>
        <mxCell id="0"/>
        <mxCell id="1" parent="0"/>
        <mxCell id="BV3S71ebivFKhuovagi6-14" value="" style="group" parent="1" vertex="1" connectable="0">
          <mxGeometry x="40" y="830" width="400" height="110" as="geometry"/>
        </mxCell>
        <mxCell id="BV3S71ebivFKhuovagi6-7" value="" style="rounded=1;whiteSpace=wrap;html=1;" parent="BV3S71ebivFKhuovagi6-14" vertex="1">
          <mxGeometry width="400" height="110" as="geometry"/>
        </mxCell>
        <mxCell id="BV3S71ebivFKhuovagi6-8" value="视图层" style="rounded=1;whiteSpace=wrap;html=1;fillColor=#ffe6cc;strokeColor=#d79b00;" parent="BV3S71ebivFKhuovagi6-14" vertex="1">
          <mxGeometry width="400" height="30" as="geometry"/>
        </mxCell>
        <mxCell id="BV3S71ebivFKhuovagi6-9" value="游戏输入" style="rounded=1;whiteSpace=wrap;html=1;fillColor=#f5f5f5;strokeColor=#666666;fontColor=#333333;" parent="1" vertex="1">
          <mxGeometry x="100" y="880" width="80" height="30" as="geometry"/>
        </mxCell>
        <mxCell id="BV3S71ebivFKhuovagi6-12" value="战斗UI" style="rounded=1;whiteSpace=wrap;html=1;fillColor=#f5f5f5;strokeColor=#666666;fontColor=#333333;" parent="1" vertex="1">
          <mxGeometry x="190" y="880" width="80" height="30" as="geometry"/>
        </mxCell>
        <mxCell id="BV3S71ebivFKhuovagi6-13" value="业务UI" style="rounded=1;whiteSpace=wrap;html=1;fillColor=#f5f5f5;strokeColor=#666666;fontColor=#333333;" parent="1" vertex="1">
          <mxGeometry x="290" y="880" width="80" height="30" as="geometry"/>
        </mxCell>
        <mxCell id="BV3S71ebivFKhuovagi6-18" value="" style="group" parent="1" vertex="1" connectable="0">
          <mxGeometry x="40" y="990" width="400" height="140" as="geometry"/>
        </mxCell>
        <mxCell id="BV3S71ebivFKhuovagi6-19" value="" style="rounded=1;whiteSpace=wrap;html=1;" parent="BV3S71ebivFKhuovagi6-18" vertex="1">
          <mxGeometry width="400" height="140" as="geometry"/>
        </mxCell>
        <mxCell id="BV3S71ebivFKhuovagi6-20" value="业务层" style="rounded=1;whiteSpace=wrap;html=1;fillColor=#ffe6cc;strokeColor=#d79b00;" parent="BV3S71ebivFKhuovagi6-18" vertex="1">
          <mxGeometry width="400" height="30" as="geometry"/>
        </mxCell>
        <mxCell id="BV3S71ebivFKhuovagi6-24" value="游戏大厅模块" style="rounded=1;whiteSpace=wrap;html=1;fillColor=#f5f5f5;strokeColor=#666666;fontColor=#333333;" parent="BV3S71ebivFKhuovagi6-18" vertex="1">
          <mxGeometry x="302.1428571428571" y="50" width="91.42857142857142" height="30" as="geometry"/>
        </mxCell>
        <mxCell id="BV3S71ebivFKhuovagi6-25" value="Gameplay" style="rounded=1;whiteSpace=wrap;html=1;fillColor=#f5f5f5;strokeColor=#666666;fontColor=#333333;" parent="BV3S71ebivFKhuovagi6-18" vertex="1">
          <mxGeometry x="9.995714285714271" y="90" width="91.42857142857142" height="30" as="geometry"/>
        </mxCell>
        <mxCell id="BV3S71ebivFKhuovagi6-23" value="创建角色模块" style="rounded=1;whiteSpace=wrap;html=1;fillColor=#f5f5f5;strokeColor=#666666;fontColor=#333333;" parent="BV3S71ebivFKhuovagi6-18" vertex="1">
          <mxGeometry x="203" y="50" width="91.42857142857142" height="30" as="geometry"/>
        </mxCell>
        <mxCell id="BV3S71ebivFKhuovagi6-21" value="玩家登入模块" style="rounded=1;whiteSpace=wrap;html=1;fillColor=#f5f5f5;strokeColor=#666666;fontColor=#333333;" parent="BV3S71ebivFKhuovagi6-18" vertex="1">
          <mxGeometry x="10" y="50" width="80" height="30" as="geometry"/>
        </mxCell>
        <mxCell id="BV3S71ebivFKhuovagi6-22" value="玩家注册模块" style="rounded=1;whiteSpace=wrap;html=1;fillColor=#f5f5f5;strokeColor=#666666;fontColor=#333333;" parent="BV3S71ebivFKhuovagi6-18" vertex="1">
          <mxGeometry x="104" y="50" width="91.42857142857142" height="30" as="geometry"/>
        </mxCell>
        <mxCell id="BV3S71ebivFKhuovagi6-27" value="" style="group" parent="1" vertex="1" connectable="0">
          <mxGeometry x="40" y="1180" width="400" height="140" as="geometry"/>
        </mxCell>
        <mxCell id="BV3S71ebivFKhuovagi6-28" value="" style="rounded=1;whiteSpace=wrap;html=1;" parent="BV3S71ebivFKhuovagi6-27" vertex="1">
          <mxGeometry width="400" height="140" as="geometry"/>
        </mxCell>
        <mxCell id="BV3S71ebivFKhuovagi6-29" value="服务层" style="rounded=1;whiteSpace=wrap;html=1;fillColor=#ffe6cc;strokeColor=#d79b00;" parent="BV3S71ebivFKhuovagi6-27" vertex="1">
          <mxGeometry width="400" height="30" as="geometry"/>
        </mxCell>
        <mxCell id="BV3S71ebivFKhuovagi6-30" value="游戏管理" style="rounded=1;whiteSpace=wrap;html=1;fillColor=#f5f5f5;strokeColor=#666666;fontColor=#333333;" parent="BV3S71ebivFKhuovagi6-27" vertex="1">
          <mxGeometry x="289.99857142857144" y="50" width="91.42857142857142" height="30" as="geometry"/>
        </mxCell>
        <mxCell id="BV3S71ebivFKhuovagi6-31" value="网络管理" style="rounded=1;whiteSpace=wrap;html=1;fillColor=#f5f5f5;strokeColor=#666666;fontColor=#333333;" parent="BV3S71ebivFKhuovagi6-27" vertex="1">
          <mxGeometry x="11.425714285714278" y="90" width="91.42857142857142" height="30" as="geometry"/>
        </mxCell>
        <mxCell id="BV3S71ebivFKhuovagi6-32" value="模块管理" style="rounded=1;whiteSpace=wrap;html=1;fillColor=#f5f5f5;strokeColor=#666666;fontColor=#333333;" parent="BV3S71ebivFKhuovagi6-27" vertex="1">
          <mxGeometry x="11.43" y="50" width="80" height="30" as="geometry"/>
        </mxCell>
        <mxCell id="BV3S71ebivFKhuovagi6-33" value="UI管理" style="rounded=1;whiteSpace=wrap;html=1;fillColor=#f5f5f5;strokeColor=#666666;fontColor=#333333;" parent="BV3S71ebivFKhuovagi6-27" vertex="1">
          <mxGeometry x="106" y="50" width="80" height="30" as="geometry"/>
        </mxCell>
        <mxCell id="BV3S71ebivFKhuovagi6-34" value="配置管理" style="rounded=1;whiteSpace=wrap;html=1;fillColor=#f5f5f5;strokeColor=#666666;fontColor=#333333;" parent="BV3S71ebivFKhuovagi6-27" vertex="1">
          <mxGeometry x="201" y="50" width="80" height="30" as="geometry"/>
        </mxCell>
        <mxCell id="BV3S71ebivFKhuovagi6-35" value="" style="group" parent="1" vertex="1" connectable="0">
          <mxGeometry x="480" y="830" width="110" height="110" as="geometry"/>
        </mxCell>
        <mxCell id="BV3S71ebivFKhuovagi6-36" value="" style="rounded=1;whiteSpace=wrap;html=1;" parent="BV3S71ebivFKhuovagi6-35" vertex="1">
          <mxGeometry width="110" height="110" as="geometry"/>
        </mxCell>
        <mxCell id="BV3S71ebivFKhuovagi6-37" value="视图层" style="rounded=1;whiteSpace=wrap;html=1;fillColor=#ffe6cc;strokeColor=#d79b00;" parent="BV3S71ebivFKhuovagi6-35" vertex="1">
          <mxGeometry width="110" height="31.428571428571427" as="geometry"/>
        </mxCell>
        <mxCell id="BV3S71ebivFKhuovagi6-38" value="UI控件" style="rounded=1;whiteSpace=wrap;html=1;fillColor=#f5f5f5;strokeColor=#666666;fontColor=#333333;" parent="BV3S71ebivFKhuovagi6-35" vertex="1">
          <mxGeometry x="18.333333333333332" y="43.214285714285715" width="73.33333333333333" height="23.57142857142857" as="geometry"/>
        </mxCell>
        <mxCell id="BV3S71ebivFKhuovagi6-39" value="" style="group" parent="1" vertex="1" connectable="0">
          <mxGeometry x="480" y="990" width="120" height="330" as="geometry"/>
        </mxCell>
        <mxCell id="BV3S71ebivFKhuovagi6-40" value="" style="rounded=1;whiteSpace=wrap;html=1;" parent="BV3S71ebivFKhuovagi6-39" vertex="1">
          <mxGeometry width="119.99999999999999" height="330" as="geometry"/>
        </mxCell>
        <mxCell id="BV3S71ebivFKhuovagi6-41" value="基础类库" style="rounded=1;whiteSpace=wrap;html=1;fillColor=#ffe6cc;strokeColor=#d79b00;" parent="BV3S71ebivFKhuovagi6-39" vertex="1">
          <mxGeometry width="120" height="30" as="geometry"/>
        </mxCell>
        <mxCell id="BV3S71ebivFKhuovagi6-44" value="存储管理" style="rounded=1;whiteSpace=wrap;html=1;fillColor=#f5f5f5;strokeColor=#666666;fontColor=#333333;flipV=0;" parent="BV3S71ebivFKhuovagi6-39" vertex="1">
          <mxGeometry x="20" y="40" width="80" height="30" as="geometry"/>
        </mxCell>
        <mxCell id="BV3S71ebivFKhuovagi6-45" value="调试器" style="rounded=1;whiteSpace=wrap;html=1;fillColor=#f5f5f5;strokeColor=#666666;fontColor=#333333;flipV=0;" parent="BV3S71ebivFKhuovagi6-39" vertex="1">
          <mxGeometry x="20" y="83" width="80" height="30" as="geometry"/>
        </mxCell>
        <mxCell id="BV3S71ebivFKhuovagi6-47" value="数学库" style="rounded=1;whiteSpace=wrap;html=1;fillColor=#f5f5f5;strokeColor=#666666;fontColor=#333333;flipV=0;" parent="BV3S71ebivFKhuovagi6-39" vertex="1">
          <mxGeometry x="20" y="125" width="80" height="30" as="geometry"/>
        </mxCell>
        <mxCell id="BV3S71ebivFKhuovagi6-48" value="网络库" style="rounded=1;whiteSpace=wrap;html=1;fillColor=#f5f5f5;strokeColor=#666666;fontColor=#333333;flipV=0;" parent="BV3S71ebivFKhuovagi6-39" vertex="1">
          <mxGeometry x="20" y="168" width="80" height="30" as="geometry"/>
        </mxCell>
        <mxCell id="BV3S71ebivFKhuovagi6-51" value="MonoBehavior能力" style="rounded=1;whiteSpace=wrap;html=1;fillColor=#f5f5f5;strokeColor=#666666;fontColor=#333333;flipV=0;" parent="BV3S71ebivFKhuovagi6-39" vertex="1">
          <mxGeometry x="20" y="210" width="80" height="30" as="geometry"/>
        </mxCell>
        <mxCell id="BV3S71ebivFKhuovagi6-66" style="shape=flexArrow;rounded=0;orthogonalLoop=1;jettySize=auto;html=1;entryX=0.5;entryY=0;entryDx=0;entryDy=0;strokeWidth=1;endArrow=block;endFill=0;endWidth=9.166666666666666;endSize=4.222222222222222;" parent="1" source="BV3S71ebivFKhuovagi6-53" target="BV3S71ebivFKhuovagi6-54" edge="1">
          <mxGeometry relative="1" as="geometry"/>
        </mxCell>
        <mxCell id="BV3S71ebivFKhuovagi6-74" style="edgeStyle=none;shape=flexArrow;rounded=0;orthogonalLoop=1;jettySize=auto;html=1;entryX=0.5;entryY=0;entryDx=0;entryDy=0;endArrow=block;endFill=0;endSize=4.222222222222222;strokeWidth=1;" parent="1" source="BV3S71ebivFKhuovagi6-53" target="BV3S71ebivFKhuovagi6-55" edge="1">
          <mxGeometry relative="1" as="geometry"/>
        </mxCell>
        <mxCell id="BV3S71ebivFKhuovagi6-75" style="edgeStyle=orthogonalEdgeStyle;shape=flexArrow;rounded=0;orthogonalLoop=1;jettySize=auto;html=1;entryX=1;entryY=0.5;entryDx=0;entryDy=0;endArrow=block;endFill=0;endSize=4.222222222222222;strokeWidth=1;" parent="1" source="BV3S71ebivFKhuovagi6-53" target="BV3S71ebivFKhuovagi6-55" edge="1">
          <mxGeometry relative="1" as="geometry"/>
        </mxCell>
        <mxCell id="BV3S71ebivFKhuovagi6-79" style="edgeStyle=orthogonalEdgeStyle;shape=flexArrow;rounded=0;orthogonalLoop=1;jettySize=auto;html=1;entryX=0;entryY=0.5;entryDx=0;entryDy=0;endArrow=block;endFill=0;endSize=4.222222222222222;strokeWidth=1;" parent="1" source="BV3S71ebivFKhuovagi6-53" target="BV3S71ebivFKhuovagi6-56" edge="1">
          <mxGeometry relative="1" as="geometry">
            <Array as="points">
              <mxPoint x="450" y="300"/>
              <mxPoint x="450" y="470"/>
            </Array>
          </mxGeometry>
        </mxCell>
        <mxCell id="BV3S71ebivFKhuovagi6-53" value="ModuleManager" style="rounded=1;whiteSpace=wrap;html=1;fillColor=#f5f5f5;strokeColor=#666666;fontColor=#333333;" parent="1" vertex="1">
          <mxGeometry x="550" y="285" width="100" height="30" as="geometry"/>
        </mxCell>
        <mxCell id="BV3S71ebivFKhuovagi6-78" style="edgeStyle=none;shape=flexArrow;rounded=0;orthogonalLoop=1;jettySize=auto;html=1;entryX=0.5;entryY=0;entryDx=0;entryDy=0;endArrow=block;endFill=0;endSize=4.222222222222222;strokeWidth=1;" parent="1" source="BV3S71ebivFKhuovagi6-54" target="BV3S71ebivFKhuovagi6-56" edge="1">
          <mxGeometry relative="1" as="geometry"/>
        </mxCell>
        <mxCell id="10ORCj97szUwCCIHPPZN-26" style="edgeStyle=orthogonalEdgeStyle;shape=flexArrow;rounded=0;orthogonalLoop=1;jettySize=auto;html=1;entryX=0;entryY=0.5;entryDx=0;entryDy=0;" edge="1" parent="1" source="BV3S71ebivFKhuovagi6-54" target="BV3S71ebivFKhuovagi6-53">
          <mxGeometry relative="1" as="geometry">
            <Array as="points">
              <mxPoint x="450" y="370"/>
              <mxPoint x="450" y="300"/>
            </Array>
          </mxGeometry>
        </mxCell>
        <mxCell id="BV3S71ebivFKhuovagi6-54" value="Module 1" style="rounded=1;whiteSpace=wrap;html=1;fillColor=#f5f5f5;strokeColor=#666666;fontColor=#333333;" parent="1" vertex="1">
          <mxGeometry x="470" y="355" width="80" height="30" as="geometry"/>
        </mxCell>
        <mxCell id="BV3S71ebivFKhuovagi6-76" style="edgeStyle=orthogonalEdgeStyle;shape=flexArrow;rounded=0;orthogonalLoop=1;jettySize=auto;html=1;entryX=1;entryY=0.5;entryDx=0;entryDy=0;endArrow=block;endFill=0;endSize=4.222222222222222;strokeWidth=1;dashed=1;dashPattern=1 2;" parent="1" source="BV3S71ebivFKhuovagi6-55" target="BV3S71ebivFKhuovagi6-56" edge="1">
          <mxGeometry relative="1" as="geometry">
            <Array as="points">
              <mxPoint x="780" y="370"/>
              <mxPoint x="780" y="470"/>
            </Array>
          </mxGeometry>
        </mxCell>
        <mxCell id="BV3S71ebivFKhuovagi6-77" style="shape=flexArrow;rounded=0;orthogonalLoop=1;jettySize=auto;html=1;entryX=0.5;entryY=0;entryDx=0;entryDy=0;endArrow=block;endFill=0;endSize=4.222222222222222;strokeWidth=1;" parent="1" source="BV3S71ebivFKhuovagi6-55" target="BV3S71ebivFKhuovagi6-56" edge="1">
          <mxGeometry relative="1" as="geometry"/>
        </mxCell>
        <mxCell id="BV3S71ebivFKhuovagi6-55" value="Module N" style="rounded=1;whiteSpace=wrap;html=1;fillColor=#f5f5f5;strokeColor=#666666;fontColor=#333333;" parent="1" vertex="1">
          <mxGeometry x="680" y="355" width="80" height="30" as="geometry"/>
        </mxCell>
        <mxCell id="BV3S71ebivFKhuovagi6-56" value="Event Manage" style="rounded=1;whiteSpace=wrap;html=1;fillColor=#f5f5f5;strokeColor=#666666;fontColor=#333333;" parent="1" vertex="1">
          <mxGeometry x="550" y="455" width="100" height="30" as="geometry"/>
        </mxCell>
        <mxCell id="BV3S71ebivFKhuovagi6-80" value="&lt;div&gt;SendMessage&lt;/div&gt;" style="text;html=1;align=center;verticalAlign=middle;whiteSpace=wrap;rounded=0;fillColor=#ffffff;" parent="1" vertex="1">
          <mxGeometry x="757" y="315" width="40" height="20" as="geometry"/>
        </mxCell>
        <mxCell id="BV3S71ebivFKhuovagi6-84" value="ListenEvent" style="text;html=1;align=center;verticalAlign=middle;whiteSpace=wrap;rounded=0;fillColor=#ffffff;" parent="1" vertex="1">
          <mxGeometry x="760" y="430" width="40" height="20" as="geometry"/>
        </mxCell>
        <mxCell id="BV3S71ebivFKhuovagi6-85" value="获取" style="text;html=1;align=center;verticalAlign=middle;whiteSpace=wrap;rounded=0;fillColor=#ffffff;" parent="1" vertex="1">
          <mxGeometry x="650" y="410" width="40" height="20" as="geometry"/>
        </mxCell>
        <mxCell id="BV3S71ebivFKhuovagi6-86" value="Create" style="text;html=1;align=center;verticalAlign=middle;whiteSpace=wrap;rounded=0;fillColor=#ffffff;" parent="1" vertex="1">
          <mxGeometry x="633" y="325" width="40" height="20" as="geometry"/>
        </mxCell>
        <mxCell id="BV3S71ebivFKhuovagi6-89" value="Create" style="text;html=1;align=center;verticalAlign=middle;whiteSpace=wrap;rounded=0;fillColor=#ffffff;" parent="1" vertex="1">
          <mxGeometry x="550" y="330" width="40" height="10" as="geometry"/>
        </mxCell>
        <mxCell id="BV3S71ebivFKhuovagi6-90" value="创建" style="text;html=1;align=center;verticalAlign=middle;whiteSpace=wrap;rounded=0;fillColor=#ffffff;" parent="1" vertex="1">
          <mxGeometry x="520" y="415" width="40" height="10" as="geometry"/>
        </mxCell>
        <mxCell id="BV3S71ebivFKhuovagi6-92" value="DispatchEvent" style="text;html=1;align=center;verticalAlign=middle;whiteSpace=wrap;rounded=0;fillColor=#ffffff;" parent="1" vertex="1">
          <mxGeometry x="410" y="430" width="40" height="20" as="geometry"/>
        </mxCell>
        <mxCell id="10ORCj97szUwCCIHPPZN-18" style="edgeStyle=orthogonalEdgeStyle;shape=flexArrow;rounded=0;orthogonalLoop=1;jettySize=auto;html=1;entryX=0.833;entryY=0.967;entryDx=0;entryDy=0;entryPerimeter=0;" edge="1" parent="1" source="zXj4FrktVXwGhjXjBqUk-2" target="zXj4FrktVXwGhjXjBqUk-5">
          <mxGeometry relative="1" as="geometry"/>
        </mxCell>
        <mxCell id="zXj4FrktVXwGhjXjBqUk-2" value="Gameplay" style="rounded=1;whiteSpace=wrap;html=1;fillColor=#f5f5f5;strokeColor=#666666;fontColor=#333333;" vertex="1" parent="1">
          <mxGeometry x="200" y="100" width="80" height="30" as="geometry"/>
        </mxCell>
        <mxCell id="10ORCj97szUwCCIHPPZN-19" style="edgeStyle=orthogonalEdgeStyle;shape=flexArrow;rounded=0;orthogonalLoop=1;jettySize=auto;html=1;entryX=0.5;entryY=1;entryDx=0;entryDy=0;" edge="1" parent="1" source="zXj4FrktVXwGhjXjBqUk-4" target="zXj4FrktVXwGhjXjBqUk-2">
          <mxGeometry relative="1" as="geometry"/>
        </mxCell>
        <mxCell id="zXj4FrktVXwGhjXjBqUk-4" value="Scene" style="rounded=1;whiteSpace=wrap;html=1;fillColor=#f5f5f5;strokeColor=#666666;fontColor=#333333;" vertex="1" parent="1">
          <mxGeometry x="200" y="170" width="80" height="30" as="geometry"/>
        </mxCell>
        <mxCell id="zXj4FrktVXwGhjXjBqUk-5" value="Basic Module" style="rounded=1;whiteSpace=wrap;html=1;fillColor=#f5f5f5;strokeColor=#666666;fontColor=#333333;" vertex="1" parent="1">
          <mxGeometry x="40" y="20" width="240" height="30" as="geometry"/>
        </mxCell>
        <mxCell id="10ORCj97szUwCCIHPPZN-16" style="edgeStyle=orthogonalEdgeStyle;shape=flexArrow;rounded=0;orthogonalLoop=1;jettySize=auto;html=1;entryX=0.5;entryY=1;entryDx=0;entryDy=0;" edge="1" parent="1" source="zXj4FrktVXwGhjXjBqUk-7" target="zXj4FrktVXwGhjXjBqUk-9">
          <mxGeometry relative="1" as="geometry"/>
        </mxCell>
        <mxCell id="zXj4FrktVXwGhjXjBqUk-7" value="UI" style="rounded=1;whiteSpace=wrap;html=1;fillColor=#f5f5f5;strokeColor=#666666;fontColor=#333333;" vertex="1" parent="1">
          <mxGeometry x="40" y="170" width="80" height="30" as="geometry"/>
        </mxCell>
        <mxCell id="10ORCj97szUwCCIHPPZN-17" style="edgeStyle=orthogonalEdgeStyle;shape=flexArrow;rounded=0;orthogonalLoop=1;jettySize=auto;html=1;entryX=0.167;entryY=1.033;entryDx=0;entryDy=0;entryPerimeter=0;" edge="1" parent="1" source="zXj4FrktVXwGhjXjBqUk-9" target="zXj4FrktVXwGhjXjBqUk-5">
          <mxGeometry relative="1" as="geometry"/>
        </mxCell>
        <mxCell id="zXj4FrktVXwGhjXjBqUk-9" value="Business" style="rounded=1;whiteSpace=wrap;html=1;fillColor=#f5f5f5;strokeColor=#666666;fontColor=#333333;" vertex="1" parent="1">
          <mxGeometry x="40" y="100" width="80" height="30" as="geometry"/>
        </mxCell>
        <mxCell id="10ORCj97szUwCCIHPPZN-1" value="Module" style="rounded=1;whiteSpace=wrap;html=1;fillColor=#f5f5f5;strokeColor=#666666;fontColor=#333333;" vertex="1" parent="1">
          <mxGeometry x="129.5" y="290" width="100" height="30" as="geometry"/>
        </mxCell>
        <mxCell id="10ORCj97szUwCCIHPPZN-31" style="edgeStyle=orthogonalEdgeStyle;rounded=0;orthogonalLoop=1;jettySize=auto;html=1;entryX=0.5;entryY=1;entryDx=0;entryDy=0;" edge="1" parent="1" source="10ORCj97szUwCCIHPPZN-2" target="10ORCj97szUwCCIHPPZN-1">
          <mxGeometry relative="1" as="geometry">
            <Array as="points">
              <mxPoint x="96.5" y="350"/>
              <mxPoint x="179.5" y="350"/>
            </Array>
          </mxGeometry>
        </mxCell>
        <mxCell id="10ORCj97szUwCCIHPPZN-2" value="BusinessModule" style="rounded=1;whiteSpace=wrap;html=1;fillColor=#f5f5f5;strokeColor=#666666;fontColor=#333333;" vertex="1" parent="1">
          <mxGeometry x="46.5" y="370" width="100" height="30" as="geometry"/>
        </mxCell>
        <mxCell id="10ORCj97szUwCCIHPPZN-29" style="edgeStyle=orthogonalEdgeStyle;rounded=0;orthogonalLoop=1;jettySize=auto;html=1;entryX=0.5;entryY=1;entryDx=0;entryDy=0;" edge="1" parent="1" source="10ORCj97szUwCCIHPPZN-3" target="10ORCj97szUwCCIHPPZN-2">
          <mxGeometry relative="1" as="geometry"/>
        </mxCell>
        <mxCell id="10ORCj97szUwCCIHPPZN-3" value="BusinessManager" style="rounded=1;whiteSpace=wrap;html=1;fillColor=#f5f5f5;strokeColor=#666666;fontColor=#333333;" vertex="1" parent="1">
          <mxGeometry x="40" y="440" width="113" height="30" as="geometry"/>
        </mxCell>
        <mxCell id="10ORCj97szUwCCIHPPZN-32" style="edgeStyle=orthogonalEdgeStyle;rounded=0;orthogonalLoop=1;jettySize=auto;html=1;" edge="1" parent="1" source="10ORCj97szUwCCIHPPZN-6">
          <mxGeometry relative="1" as="geometry">
            <mxPoint x="179.5" y="320" as="targetPoint"/>
            <Array as="points">
              <mxPoint x="259.5" y="350"/>
              <mxPoint x="179.5" y="350"/>
            </Array>
          </mxGeometry>
        </mxCell>
        <mxCell id="10ORCj97szUwCCIHPPZN-6" value="ManagerModule" style="rounded=1;whiteSpace=wrap;html=1;fillColor=#f5f5f5;strokeColor=#666666;fontColor=#333333;" vertex="1" parent="1">
          <mxGeometry x="209.5" y="370" width="100" height="30" as="geometry"/>
        </mxCell>
        <mxCell id="10ORCj97szUwCCIHPPZN-30" style="edgeStyle=orthogonalEdgeStyle;rounded=0;orthogonalLoop=1;jettySize=auto;html=1;entryX=0.5;entryY=1;entryDx=0;entryDy=0;" edge="1" parent="1" source="10ORCj97szUwCCIHPPZN-10" target="10ORCj97szUwCCIHPPZN-6">
          <mxGeometry relative="1" as="geometry"/>
        </mxCell>
        <mxCell id="10ORCj97szUwCCIHPPZN-10" value="GameSystem" style="rounded=1;whiteSpace=wrap;html=1;fillColor=#f5f5f5;strokeColor=#666666;fontColor=#333333;" vertex="1" parent="1">
          <mxGeometry x="203" y="440" width="113" height="30" as="geometry"/>
        </mxCell>
        <mxCell id="10ORCj97szUwCCIHPPZN-20" value="&lt;font style=&quot;font-size: 20px&quot;&gt;......&lt;/font&gt;" style="text;html=1;align=center;verticalAlign=middle;whiteSpace=wrap;rounded=0;fillColor=#ffffff;" vertex="1" parent="1">
          <mxGeometry x="587" y="360" width="40" height="20" as="geometry"/>
        </mxCell>
        <mxCell id="BV3S71ebivFKhuovagi6-91" value="&lt;div&gt;SendMessage&lt;/div&gt;" style="text;html=1;align=center;verticalAlign=middle;whiteSpace=wrap;rounded=0;fillColor=#ffffff;" parent="1" vertex="1">
          <mxGeometry x="420" y="315" width="40" height="20" as="geometry"/>
        </mxCell>
        <mxCell id="10ORCj97szUwCCIHPPZN-27" value="Module" style="rounded=1;whiteSpace=wrap;html=1;fillColor=#f5f5f5;strokeColor=#666666;fontColor=#333333;" vertex="1" parent="1">
          <mxGeometry x="40" y="580" width="100" height="30" as="geometry"/>
        </mxCell>
        <mxCell id="10ORCj97szUwCCIHPPZN-34" style="edgeStyle=orthogonalEdgeStyle;rounded=0;orthogonalLoop=1;jettySize=auto;html=1;entryX=0.5;entryY=1;entryDx=0;entryDy=0;" edge="1" parent="1" source="10ORCj97szUwCCIHPPZN-28" target="10ORCj97szUwCCIHPPZN-27">
          <mxGeometry relative="1" as="geometry"/>
        </mxCell>
        <mxCell id="10ORCj97szUwCCIHPPZN-28" value="ServiceModule" style="rounded=1;whiteSpace=wrap;html=1;fillColor=#f5f5f5;strokeColor=#666666;fontColor=#333333;" vertex="1" parent="1">
          <mxGeometry x="40" y="660" width="100" height="30" as="geometry"/>
        </mxCell>
        <mxCell id="10ORCj97szUwCCIHPPZN-36" value="&lt;div&gt;Singleton&lt;/div&gt;" style="rounded=1;whiteSpace=wrap;html=1;fillColor=#f5f5f5;strokeColor=#666666;fontColor=#333333;" vertex="1" parent="1">
          <mxGeometry x="270" y="580" width="100" height="30" as="geometry"/>
        </mxCell>
        <mxCell id="10ORCj97szUwCCIHPPZN-42" style="rounded=0;orthogonalLoop=1;jettySize=auto;html=1;entryX=0.5;entryY=0;entryDx=0;entryDy=0;" edge="1" parent="1" source="10ORCj97szUwCCIHPPZN-37" target="10ORCj97szUwCCIHPPZN-41">
          <mxGeometry relative="1" as="geometry"/>
        </mxCell>
        <mxCell id="10ORCj97szUwCCIHPPZN-44" style="edgeStyle=none;rounded=0;orthogonalLoop=1;jettySize=auto;html=1;entryX=0.5;entryY=1;entryDx=0;entryDy=0;" edge="1" parent="1" source="10ORCj97szUwCCIHPPZN-37" target="10ORCj97szUwCCIHPPZN-36">
          <mxGeometry relative="1" as="geometry"/>
        </mxCell>
        <mxCell id="10ORCj97szUwCCIHPPZN-37" value="ServiceModule 1" style="rounded=1;whiteSpace=wrap;html=1;fillColor=#f5f5f5;strokeColor=#666666;fontColor=#333333;" vertex="1" parent="1">
          <mxGeometry x="170" y="660" width="100" height="30" as="geometry"/>
        </mxCell>
        <mxCell id="10ORCj97szUwCCIHPPZN-43" style="edgeStyle=none;rounded=0;orthogonalLoop=1;jettySize=auto;html=1;entryX=0.5;entryY=0;entryDx=0;entryDy=0;" edge="1" parent="1" source="10ORCj97szUwCCIHPPZN-38" target="10ORCj97szUwCCIHPPZN-41">
          <mxGeometry relative="1" as="geometry"/>
        </mxCell>
        <mxCell id="10ORCj97szUwCCIHPPZN-45" style="edgeStyle=none;rounded=0;orthogonalLoop=1;jettySize=auto;html=1;" edge="1" parent="1" source="10ORCj97szUwCCIHPPZN-38">
          <mxGeometry relative="1" as="geometry">
            <mxPoint x="330" y="610" as="targetPoint"/>
          </mxGeometry>
        </mxCell>
        <mxCell id="10ORCj97szUwCCIHPPZN-38" value="ServiceModule N" style="rounded=1;whiteSpace=wrap;html=1;fillColor=#f5f5f5;strokeColor=#666666;fontColor=#333333;" vertex="1" parent="1">
          <mxGeometry x="370" y="660" width="100" height="30" as="geometry"/>
        </mxCell>
        <mxCell id="10ORCj97szUwCCIHPPZN-39" value="&lt;font style=&quot;font-size: 20px&quot;&gt;......&lt;/font&gt;" style="text;html=1;align=center;verticalAlign=middle;whiteSpace=wrap;rounded=0;fillColor=#ffffff;" vertex="1" parent="1">
          <mxGeometry x="300" y="660" width="40" height="20" as="geometry"/>
        </mxCell>
        <mxCell id="10ORCj97szUwCCIHPPZN-41" value="Basic Classlib" style="rounded=1;whiteSpace=wrap;html=1;fillColor=#f5f5f5;strokeColor=#666666;fontColor=#333333;" vertex="1" parent="1">
          <mxGeometry x="270" y="740" width="100" height="30" as="geometry"/>
        </mxCell>
        <mxCell id="a1Vj4hyfNmmESj826hEr-1" style="edgeStyle=none;rounded=0;orthogonalLoop=1;jettySize=auto;html=1;entryX=0.5;entryY=1;entryDx=0;entryDy=0;shape=flexArrow;" edge="1" parent="1" source="BV3S71ebivFKhuovagi6-29" target="BV3S71ebivFKhuovagi6-19">
          <mxGeometry relative="1" as="geometry"/>
        </mxCell>
        <mxCell id="a1Vj4hyfNmmESj826hEr-2" style="edgeStyle=none;shape=flexArrow;rounded=0;orthogonalLoop=1;jettySize=auto;html=1;entryX=0.5;entryY=1;entryDx=0;entryDy=0;" edge="1" parent="1" source="BV3S71ebivFKhuovagi6-19" target="BV3S71ebivFKhuovagi6-7">
          <mxGeometry relative="1" as="geometry"/>
        </mxCell>
        <mxCell id="a1Vj4hyfNmmESj826hEr-3" style="edgeStyle=none;shape=flexArrow;rounded=0;orthogonalLoop=1;jettySize=auto;html=1;entryX=0;entryY=0.5;entryDx=0;entryDy=0;" edge="1" parent="1" source="BV3S71ebivFKhuovagi6-7" target="BV3S71ebivFKhuovagi6-36">
          <mxGeometry relative="1" as="geometry"/>
        </mxCell>
        <mxCell id="a1Vj4hyfNmmESj826hEr-4" style="edgeStyle=none;shape=flexArrow;rounded=0;orthogonalLoop=1;jettySize=auto;html=1;exitX=0;exitY=0.75;exitDx=0;exitDy=0;entryX=1;entryY=0.414;entryDx=0;entryDy=0;entryPerimeter=0;" edge="1" parent="1" source="BV3S71ebivFKhuovagi6-40" target="BV3S71ebivFKhuovagi6-28">
          <mxGeometry relative="1" as="geometry"/>
        </mxCell>
        <mxCell id="a1Vj4hyfNmmESj826hEr-5" style="edgeStyle=none;shape=flexArrow;rounded=0;orthogonalLoop=1;jettySize=auto;html=1;exitX=0;exitY=0.25;exitDx=0;exitDy=0;" edge="1" parent="1" source="BV3S71ebivFKhuovagi6-40" target="BV3S71ebivFKhuovagi6-19">
          <mxGeometry relative="1" as="geometry"/>
        </mxCell>
      </root>
    </mxGraphModel>
  </diagram>
</mxfile>
